RobotoDelta-XOPQmin.ufo
<glyph name="numbersign" format="1">
  <advance width="1222"/>
  <unicode hex="0023"/>
  <outline>
    <contour>
      <point x="185" y="-30" type="line"/>
      <point x="578" y="1476" type="line"/>
      <point x="608" y="1476" type="line"/>
      <point x="215" y="-30" type="line"/>
    </contour>
    <contour>
      <point x="616" y="-30" type="line"/>
      <point x="1009" y="1476" type="line"/>
      <point x="1039" y="1476" type="line"/>
      <point x="646" y="-30" type="line"/>
    </contour>
    <contour>
      <point x="129" y="904" type="line"/>
      <point x="129" y="1042" type="line"/>
      <point x="1158" y="1042" type="line"/>
      <point x="1158" y="904" type="line"/>
    </contour>
    <contour>
      <point x="64" y="413" type="line"/>
      <point x="64" y="551" type="line"/>
      <point x="1095" y="551" type="line"/>
      <point x="1095" y="413" type="line"/>
    </contour>
  </outline>
</glyph>
<glyph name="dollar" format="1">
  <advance width="898"/>
  <unicode hex="0024"/>
  <outline>
    <contour>
      <point x="77" y="406" type="qcurve" smooth="yes"/>
      <point x="77" y="418" type="line"/>
      <point x="123" y="418" type="line"/>
      <point x="123" y="411" type="line" smooth="yes"/>
      <point x="123" y="300"/>
      <point x="285" y="153"/>
      <point x="446" y="153" type="qcurve" smooth="yes"/>
      <point x="613" y="153"/>
      <point x="771" y="297"/>
      <point x="771" y="382" type="qcurve" smooth="yes"/>
      <point x="771" y="470"/>
      <point x="627" y="605"/>
      <point x="424" y="672" type="qcurve" smooth="yes"/>
      <point x="267" y="723"/>
      <point x="103" y="891"/>
      <point x="103" y="1066" type="qcurve" smooth="yes"/>
      <point x="103" y="1245"/>
      <point x="304" y="1456"/>
      <point x="445" y="1456" type="qcurve" smooth="yes"/>
      <point x="605" y="1456"/>
      <point x="792" y="1235"/>
      <point x="792" y="1058" type="qcurve" smooth="yes"/>
      <point x="792" y="1043" type="line"/>
      <point x="747" y="1043" type="line"/>
      <point x="747" y="1057" type="line" smooth="yes"/>
      <point x="747" y="1152"/>
      <point x="603" y="1298"/>
      <point x="438" y="1298" type="qcurve" smooth="yes"/>
      <point x="276" y="1298"/>
      <point x="145" y="1157"/>
      <point x="145" y="1078" type="qcurve" smooth="yes"/>
      <point x="145" y="1006"/>
      <point x="294" y="876"/>
      <point x="471" y="821" type="qcurve" smooth="yes"/>
      <point x="636" y="769"/>
      <point x="813" y="589"/>
      <point x="813" y="394" type="qcurve" smooth="yes"/>
      <point x="813" y="197"/>
      <point x="606" y="0"/>
      <point x="455" y="0" type="qcurve" smooth="yes"/>
      <point x="298" y="0"/>
      <point x="77" y="189"/>
    </contour>
    <contour>
      <point x="449" y="744" type="line"/>
      <point x="449" y="1352" type="line"/>
      <point x="439" y="1353" type="line"/>
      <point x="439" y="1564" type="line"/>
      <point x="457" y="1564" type="line"/>
      <point x="457" y="744" type="line"/>
    </contour>
    <contour>
      <point x="439" y="-158" type="line"/>
      <point x="439" y="715" type="line"/>
      <point x="449" y="715" type="line"/>
      <point x="449" y="100" type="line"/>
      <point x="457" y="100" type="line"/>
      <point x="457" y="-158" type="line"/>
    </contour>
  </outline>
</glyph>
<glyph name="percent" format="1">
  <advance width="1428"/>
  <unicode hex="0025"/>
  <outline>
    <contour>
      <point x="64" y="982" type="qcurve" smooth="yes"/>
      <point x="64" y="1169" type="line" smooth="yes"/>
      <point x="64" y="1317"/>
      <point x="201" y="1485"/>
      <point x="293" y="1485" type="qcurve" smooth="yes"/>
      <point x="388" y="1485"/>
      <point x="523" y="1317"/>
      <point x="523" y="1169" type="qcurve" smooth="yes"/>
      <point x="523" y="982" type="line" smooth="yes"/>
      <point x="523" y="835"/>
      <point x="388" y="668"/>
      <point x="295" y="668" type="qcurve" smooth="yes"/>
      <point x="202" y="668"/>
      <point x="64" y="835"/>
    </contour>
    <contour>
      <point x="104" y="987" type="line" smooth="yes"/>
      <point x="104" y="957"/>
      <point x="177" y="828"/>
      <point x="295" y="828" type="qcurve" smooth="yes"/>
      <point x="414" y="828"/>
      <point x="484" y="957"/>
      <point x="484" y="987" type="qcurve" smooth="yes"/>
      <point x="484" y="1164" type="line" smooth="yes"/>
      <point x="484" y="1195"/>
      <point x="411" y="1325"/>
      <point x="293" y="1325" type="qcurve" smooth="yes"/>
      <point x="176" y="1325"/>
      <point x="104" y="1195"/>
      <point x="104" y="1164" type="qcurve" smooth="yes"/>
    </contour>
    <contour>
      <point x="1107" y="1415" type="line"/>
      <point x="356" y="-8" type="line"/>
      <point x="314" y="23" type="line"/>
      <point x="1066" y="1446" type="line"/>
    </contour>
    <contour>
      <point x="905" y="291" type="qcurve" smooth="yes"/>
      <point x="905" y="478" type="line" smooth="yes"/>
      <point x="905" y="626"/>
      <point x="1042" y="794"/>
      <point x="1134" y="794" type="qcurve" smooth="yes"/>
      <point x="1229" y="794"/>
      <point x="1364" y="626"/>
      <point x="1364" y="478" type="qcurve" smooth="yes"/>
      <point x="1364" y="291" type="line" smooth="yes"/>
      <point x="1364" y="144"/>
      <point x="1229" y="-23"/>
      <point x="1136" y="-23" type="qcurve" smooth="yes"/>
      <point x="1043" y="-23"/>
      <point x="905" y="144"/>
    </contour>
    <contour>
      <point x="944" y="296" type="line" smooth="yes"/>
      <point x="944" y="266"/>
      <point x="1017" y="137"/>
      <point x="1136" y="137" type="qcurve" smooth="yes"/>
      <point x="1254" y="137"/>
      <point x="1325" y="266"/>
      <point x="1325" y="296" type="qcurve" smooth="yes"/>
      <point x="1325" y="473" type="line" smooth="yes"/>
      <point x="1325" y="504"/>
      <point x="1252" y="634"/>
      <point x="1134" y="634" type="qcurve" smooth="yes"/>
      <point x="1016" y="634"/>
      <point x="944" y="504"/>
      <point x="944" y="473" type="qcurve" smooth="yes"/>
    </contour>
  </outline>
</glyph>
<glyph name="quotesingle" format="1">
  <advance width="266"/>
  <unicode hex="0027"/>
  <outline>
    <contour>
      <point x="118" y="963" type="line"/>
      <point x="100" y="1275" type="line"/>
      <point x="100" y="1456" type="line"/>
      <point x="166" y="1456" type="line"/>
      <point x="166" y="1284" type="line"/>
      <point x="148" y="963" type="line"/>
    </contour>
  </outline>
</glyph>
<glyph name="parenleft" format="1">
  <advance width="510"/>
  <unicode hex="0028"/>
  <outline>
    <contour>
      <point x="474" y="-378" type="line"/>
      <point x="451" y="-363"/>
      <point x="124" y="76"/>
      <point x="124" y="532" type="qcurve" smooth="yes"/>
      <point x="124" y="542" type="line" smooth="yes"/>
      <point x="124" y="996"/>
      <point x="451" y="1418"/>
      <point x="474" y="1433" type="qcurve"/>
      <point x="474" y="1308" type="line"/>
      <point x="384" y="1241"/>
      <point x="181" y="868"/>
      <point x="181" y="544" type="qcurve" smooth="yes"/>
      <point x="181" y="520" type="line" smooth="yes"/>
      <point x="181" y="188"/>
      <point x="384" y="-181"/>
      <point x="474" y="-254" type="qcurve"/>
    </contour>
  </outline>
</glyph>
<glyph name="parenright" format="1">
  <advance width="510"/>
  <unicode hex="0029"/>
  <outline>
    <contour>
      <point x="124" y="-378" type="qcurve"/>
      <point x="124" y="-254" type="line"/>
      <point x="214" y="-181"/>
      <point x="417" y="188"/>
      <point x="417" y="520" type="qcurve" smooth="yes"/>
      <point x="417" y="544" type="line" smooth="yes"/>
      <point x="417" y="868"/>
      <point x="213" y="1241"/>
      <point x="124" y="1308" type="qcurve"/>
      <point x="124" y="1433" type="line"/>
      <point x="147" y="1418"/>
      <point x="474" y="996"/>
      <point x="474" y="542" type="qcurve" smooth="yes"/>
      <point x="474" y="532" type="line" smooth="yes"/>
      <point x="474" y="76"/>
      <point x="147" y="-363"/>
    </contour>
  </outline>
</glyph>
<glyph name="slash" format="1">
  <advance width="373"/>
  <unicode hex="002F"/>
  <outline>
    <contour>
      <point x="-102" y="-125" type="line"/>
      <point x="415" y="1456" type="line"/>
      <point x="475" y="1456" type="line"/>
      <point x="-41" y="-125" type="line"/>
    </contour>
  </outline>
</glyph>
<glyph name="zero" format="1">
  <advance width="878"/>
  <unicode hex="0030"/>
  <outline>
    <contour>
      <point x="110" y="440" type="qcurve" smooth="yes"/>
      <point x="110" y="1007" type="line" smooth="yes"/>
      <point x="110" y="1246"/>
      <point x="296" y="1479"/>
      <point x="438" y="1479" type="qcurve" smooth="yes"/>
      <point x="583" y="1479"/>
      <point x="768" y="1246"/>
      <point x="768" y="1007" type="qcurve" smooth="yes"/>
      <point x="768" y="440" type="line" smooth="yes"/>
      <point x="768" y="201"/>
      <point x="583" y="-30"/>
      <point x="440" y="-30" type="qcurve" smooth="yes"/>
      <point x="296" y="-30"/>
      <point x="110" y="201"/>
    </contour>
    <contour>
      <point x="165" y="428" type="line" smooth="yes"/>
      <point x="165" y="317"/>
      <point x="282" y="124"/>
      <point x="440" y="124" type="qcurve" smooth="yes"/>
      <point x="598" y="124"/>
      <point x="713" y="322"/>
      <point x="713" y="428" type="qcurve" smooth="yes"/>
      <point x="713" y="1019" type="line" smooth="yes"/>
      <point x="713" y="1130"/>
      <point x="596" y="1323"/>
      <point x="438" y="1323" type="qcurve" smooth="yes"/>
      <point x="280" y="1323"/>
      <point x="165" y="1125"/>
      <point x="165" y="1019" type="qcurve" smooth="yes"/>
    </contour>
  </outline>
</glyph>
<glyph name="one" format="1">
  <advance width="1029"/>
  <unicode hex="0031"/>
  <outline>
    <contour>
      <point x="611" y="0" type="line"/>
      <point x="611" y="1303" type="line"/>
      <point x="171" y="1116" type="line"/>
      <point x="171" y="1299" type="line"/>
      <point x="636" y="1476" type="line"/>
      <point x="666" y="1476" type="line"/>
      <point x="666" y="0" type="line"/>
    </contour>
  </outline>
</glyph>
<glyph name="two" format="1">
  <advance width="918"/>
  <unicode hex="0032"/>
  <outline>
    <contour>
      <point x="102" y="0" type="line"/>
      <point x="102" y="50" type="line"/>
      <point x="551" y="654" type="line" smooth="yes"/>
      <point x="627" y="757"/>
      <point x="719" y="954"/>
      <point x="719" y="1070" type="qcurve" smooth="yes"/>
      <point x="719" y="1187"/>
      <point x="592" y="1324"/>
      <point x="461" y="1324" type="qcurve" smooth="yes"/>
      <point x="344" y="1324"/>
      <point x="182" y="1164"/>
      <point x="182" y="1037" type="qcurve" smooth="yes"/>
      <point x="182" y="1028" type="line"/>
      <point x="130" y="1028" type="line"/>
      <point x="130" y="1035" type="line" smooth="yes"/>
      <point x="130" y="1248"/>
      <point x="297" y="1476"/>
      <point x="458" y="1476" type="qcurve" smooth="yes"/>
      <point x="619" y="1476"/>
      <point x="773" y="1251"/>
      <point x="773" y="1071" type="qcurve" smooth="yes"/>
      <point x="773" y="937"/>
      <point x="681" y="746"/>
      <point x="598" y="630" type="qcurve" smooth="yes"/>
      <point x="254" y="152" type="line"/>
      <point x="837" y="152" type="line"/>
      <point x="837" y="0" type="line"/>
    </contour>
  </outline>
</glyph>
<glyph name="four" format="1">
  <advance width="888"/>
  <unicode hex="0034"/>
  <outline>
    <contour>
      <point x="724" y="0" type="line"/>
      <point x="724" y="401" type="line"/>
      <point x="724" y="418" type="line"/>
      <point x="724" y="1314" type="line"/>
      <point x="712" y="1314" type="line"/>
      <point x="144" y="500" type="line"/>
      <point x="758" y="500" type="line"/>
      <point x="782" y="500" type="line"/>
      <point x="974" y="500" type="line"/>
      <point x="974" y="348" type="line"/>
      <point x="53" y="348" type="line"/>
      <point x="53" y="464" type="line"/>
      <point x="744" y="1456" type="line"/>
      <point x="782" y="1456" type="line"/>
      <point x="782" y="0" type="line"/>
    </contour>
  </outline>
</glyph>
<glyph name="eight" format="1">
  <advance width="906"/>
  <unicode hex="0038"/>
  <outline>
    <contour>
      <point x="108" y="384" type="qcurve" smooth="yes"/>
      <point x="108" y="533"/>
      <point x="229" y="716"/>
      <point x="325" y="749" type="qcurve"/>
      <point x="325" y="752" type="line"/>
      <point x="239" y="785"/>
      <point x="150" y="946"/>
      <point x="150" y="1077" type="qcurve" smooth="yes"/>
      <point x="150" y="1283"/>
      <point x="319" y="1478"/>
      <point x="448" y="1478" type="qcurve" smooth="yes"/>
      <point x="577" y="1478"/>
      <point x="748" y="1283"/>
      <point x="748" y="1077" type="qcurve" smooth="yes"/>
      <point x="748" y="946"/>
      <point x="662" y="784"/>
      <point x="572" y="752" type="qcurve"/>
      <point x="572" y="749" type="line"/>
      <point x="671" y="717"/>
      <point x="794" y="532"/>
      <point x="794" y="384" type="qcurve" smooth="yes"/>
      <point x="794" y="169"/>
      <point x="594" y="-30"/>
      <point x="449" y="-30" type="qcurve" smooth="yes"/>
      <point x="304" y="-30"/>
      <point x="108" y="169"/>
    </contour>
    <contour>
      <point x="205" y="1074" type="qcurve" smooth="yes"/>
      <point x="205" y="964"/>
      <point x="343" y="821"/>
      <point x="449" y="821" type="qcurve" smooth="yes"/>
      <point x="555" y="821"/>
      <point x="693" y="964"/>
      <point x="693" y="1074" type="qcurve" smooth="yes"/>
      <point x="693" y="1183"/>
      <point x="555" y="1323"/>
      <point x="448" y="1323" type="qcurve" smooth="yes"/>
      <point x="342" y="1323"/>
      <point x="205" y="1183"/>
    </contour>
    <contour>
      <point x="163" y="399" type="qcurve" smooth="yes"/>
      <point x="163" y="279"/>
      <point x="325" y="124"/>
      <point x="451" y="124" type="qcurve" smooth="yes"/>
      <point x="577" y="124"/>
      <point x="739" y="279"/>
      <point x="739" y="399" type="qcurve" smooth="yes"/>
      <point x="739" y="517"/>
      <point x="576" y="669"/>
      <point x="449" y="669" type="qcurve" smooth="yes"/>
      <point x="324" y="669"/>
      <point x="163" y="517"/>
    </contour>
  </outline>
</glyph>
<glyph name="greater" format="1">
  <advance width="912"/>
  <unicode hex="003E"/>
  <outline>
    <contour>
      <point x="180" y="241" type="line"/>
      <point x="180" y="393" type="line"/>
      <point x="647" y="645" type="line"/>
      <point x="180" y="901" type="line"/>
      <point x="180" y="1053" type="line"/>
      <point x="740" y="729" type="line"/>
      <point x="740" y="566" type="line"/>
    </contour>
  </outline>
</glyph>
<glyph name="at" format="1">
  <advance width="1771"/>
  <unicode hex="0040"/>
  <outline>
    <contour>
      <point x="546" y="483" type="qcurve" smooth="yes"/>
      <point x="564" y="728"/>
      <point x="807" y="1040"/>
      <point x="899" y="1040" type="qcurve" smooth="yes"/>
      <point x="954" y="1040"/>
      <point x="1074" y="979"/>
      <point x="1123" y="934" type="qcurve"/>
      <point x="1180" y="934" type="line"/>
      <point x="1073" y="318" type="line"/>
      <point x="1066" y="214"/>
      <point x="1175" y="137"/>
      <point x="1253" y="137" type="qcurve" smooth="yes"/>
      <point x="1395" y="137"/>
      <point x="1579" y="400"/>
      <point x="1579" y="649" type="qcurve" smooth="yes"/>
      <point x="1579" y="886"/>
      <point x="1227" y="1333"/>
      <point x="894" y="1333" type="qcurve" smooth="yes"/>
      <point x="589" y="1333"/>
      <point x="164" y="823"/>
      <point x="164" y="478" type="qcurve" smooth="yes"/>
      <point x="164" y="131"/>
      <point x="527" y="-298"/>
      <point x="836" y="-298" type="qcurve" smooth="yes"/>
      <point x="945" y="-298"/>
      <point x="1134" y="-245"/>
      <point x="1094" y="-273" type="qcurve"/>
      <point x="1094" y="-378" type="line"/>
      <point x="1052" y="-410"/>
      <point x="877" y="-453"/>
      <point x="833" y="-453" type="qcurve" smooth="yes"/>
      <point x="550" y="-453"/>
      <point x="116" y="35"/>
      <point x="116" y="478" type="qcurve" smooth="yes"/>
      <point x="116" y="907"/>
      <point x="617" y="1484"/>
      <point x="897" y="1484" type="qcurve" smooth="yes"/>
      <point x="1184" y="1484"/>
      <point x="1605" y="1019"/>
      <point x="1605" y="649" type="qcurve" smooth="yes"/>
      <point x="1605" y="341"/>
      <point x="1379" y="-1"/>
      <point x="1235" y="-1" type="qcurve" smooth="yes"/>
      <point x="1190" y="-1"/>
      <point x="1059" y="89"/>
      <point x="989" y="280" type="qcurve"/>
      <point x="892" y="85"/>
      <point x="780" y="-1"/>
      <point x="753" y="-1" type="qcurve" smooth="yes"/>
      <point x="669" y="-1"/>
      <point x="527" y="236"/>
    </contour>
    <contour>
      <point x="605" y="403" type="qcurve" smooth="yes"/>
      <point x="598" y="315"/>
      <point x="676" y="155"/>
      <point x="792" y="155" type="qcurve" smooth="yes"/>
      <point x="878" y="155"/>
      <point x="994" y="270"/>
      <point x="1029" y="416" type="qcurve"/>
      <point x="1104" y="854" type="line"/>
      <point x="1066" y="878"/>
      <point x="988" y="901"/>
      <point x="912" y="901" type="qcurve" smooth="yes"/>
      <point x="779" y="901"/>
      <point x="623" y="635"/>
    </contour>
  </outline>
</glyph>
<glyph name="A" format="1">
  <advance width="998"/>
  <unicode hex="0041"/>
  <outline>
    <contour>
      <point x="0" y="0" type="line"/>
      <point x="555" y="1466" type="line"/>
      <point x="607" y="1466" type="line"/>
      <point x="1140" y="0" type="line"/>
      <point x="1082" y="0" type="line"/>
      <point x="682" y="1099" type="line" smooth="yes"/>
      <point x="672" y="1127"/>
      <point x="646" y="1207"/>
      <point x="641" y="1228" type="qcurve"/>
      <point x="638" y="1228" type="line"/>
      <point x="632" y="1206"/>
      <point x="608" y="1127"/>
      <point x="598" y="1099" type="qcurve" smooth="yes"/>
      <point x="194" y="0" type="line"/>
    </contour>
    <contour>
      <point x="247" y="381" type="line"/>
      <point x="298" y="539" type="line"/>
      <point x="911" y="539" type="line"/>
      <point x="972" y="381" type="line"/>
    </contour>
    <contour>
      <point x="502" y="1432" type="move" name="top"/>
    </contour>
  </outline>
</glyph>
<glyph name="B" format="1">
  <advance width="1003"/>
  <unicode hex="0042"/>
  <outline>
    <contour>
      <point x="170" y="0" type="line"/>
      <point x="170" y="1456" type="line"/>
      <point x="511" y="1456" type="line" smooth="yes"/>
      <point x="662" y="1456"/>
      <point x="860" y="1285"/>
      <point x="860" y="1068" type="qcurve" smooth="yes"/>
      <point x="860" y="935"/>
      <point x="747" y="792"/>
      <point x="677" y="767" type="qcurve"/>
      <point x="677" y="765" type="line"/>
      <point x="774" y="728"/>
      <point x="893" y="564"/>
      <point x="893" y="420" type="qcurve" smooth="yes"/>
      <point x="893" y="201"/>
      <point x="686" y="0"/>
      <point x="539" y="0" type="qcurve" smooth="yes"/>
    </contour>
    <contour>
      <point x="224" y="836" type="line"/>
      <point x="514" y="836" type="line" smooth="yes"/>
      <point x="638" y="836"/>
      <point x="790" y="960"/>
      <point x="790" y="1070" type="qcurve" smooth="yes"/>
      <point x="790" y="1189"/>
      <point x="651" y="1298"/>
      <point x="508" y="1298" type="qcurve" smooth="yes"/>
      <point x="224" y="1298" type="line"/>
    </contour>
    <contour>
      <point x="224" y="157" type="line"/>
      <point x="541" y="157" type="line" smooth="yes"/>
      <point x="678" y="157"/>
      <point x="830" y="299"/>
      <point x="830" y="418" type="qcurve" smooth="yes"/>
      <point x="830" y="539"/>
      <point x="696" y="681"/>
      <point x="550" y="681" type="qcurve" smooth="yes"/>
      <point x="224" y="681" type="line"/>
    </contour>
  </outline>
</glyph>
<glyph name="H" format="1">
  <advance width="1182"/>
  <unicode hex="0048"/>
  <outline>
    <contour>
      <point x="170" y="0" type="line"/>
      <point x="170" y="1456" type="line"/>
      <point x="224" y="1456" type="line"/>
      <point x="224" y="830" type="line"/>
      <point x="958" y="830" type="line"/>
      <point x="958" y="1456" type="line"/>
      <point x="1012" y="1456" type="line"/>
      <point x="1012" y="0" type="line"/>
      <point x="958" y="0" type="line"/>
      <point x="958" y="673" type="line"/>
      <point x="224" y="673" type="line"/>
      <point x="224" y="0" type="line"/>
    </contour>
  </outline>
</glyph>
<glyph name="Q" format="1">
  <advance width="1179"/>
  <unicode hex="0051"/>
  <outline>
    <contour>
      <point x="1050" y="-246" type="line"/>
      <point x="686" y="43" type="line"/>
      <point x="720" y="84" type="line"/>
      <point x="1090" y="-209" type="line"/>
    </contour>
    <contour>
      <point x="115" y="682" type="qcurve" smooth="yes"/>
      <point x="115" y="774" type="line" smooth="yes"/>
      <point x="115" y="1127"/>
      <point x="380" y="1486"/>
      <point x="589" y="1486" type="qcurve" smooth="yes"/>
      <point x="798" y="1486"/>
      <point x="1064" y="1129"/>
      <point x="1064" y="774" type="qcurve" smooth="yes"/>
      <point x="1064" y="682" type="line" smooth="yes"/>
      <point x="1064" y="336"/>
      <point x="798" y="-25"/>
      <point x="596" y="-25" type="qcurve" smooth="yes"/>
      <point x="382" y="-25"/>
      <point x="115" y="334"/>
    </contour>
    <contour>
      <point x="170" y="682" type="line" smooth="yes"/>
      <point x="170" y="419"/>
      <point x="410" y="138"/>
      <point x="591" y="138" type="qcurve" smooth="yes"/>
      <point x="778" y="138"/>
      <point x="1009" y="422"/>
      <point x="1009" y="682" type="qcurve" smooth="yes"/>
      <point x="1009" y="776" type="line" smooth="yes"/>
      <point x="1009" y="1044"/>
      <point x="778" y="1322"/>
      <point x="589" y="1322" type="qcurve" smooth="yes"/>
      <point x="411" y="1322"/>
      <point x="170" y="1042"/>
      <point x="170" y="776" type="qcurve" smooth="yes"/>
    </contour>
  </outline>
</glyph>
<glyph name="R" format="1">
  <advance width="983"/>
  <unicode hex="0052"/>
  <outline>
    <contour>
      <point x="891" y="0" type="line"/>
      <point x="530" y="661" type="line"/>
      <point x="594" y="661" type="line"/>
      <point x="947" y="8" type="line"/>
      <point x="952" y="0" type="line"/>
    </contour>
    <contour>
      <point x="177" y="0" type="line"/>
      <point x="177" y="1456" type="line"/>
      <point x="500" y="1456" type="line" smooth="yes"/>
      <point x="669" y="1456"/>
      <point x="864" y="1248"/>
      <point x="864" y="1019" type="qcurve" smooth="yes"/>
      <point x="864" y="830"/>
      <point x="716" y="626"/>
      <point x="567" y="590" type="qcurve"/>
      <point x="231" y="590" type="line"/>
      <point x="231" y="0" type="line"/>
    </contour>
    <contour>
      <point x="231" y="747" type="line"/>
      <point x="496" y="747" type="line" smooth="yes"/>
      <point x="650" y="747"/>
      <point x="808" y="904"/>
      <point x="808" y="1019" type="qcurve" smooth="yes"/>
      <point x="808" y="1144"/>
      <point x="656" y="1298"/>
      <point x="490" y="1298" type="qcurve" smooth="yes"/>
      <point x="231" y="1298" type="line"/>
    </contour>
  </outline>
</glyph>
<glyph name="X" format="1">
  <advance width="1204"/>
  <unicode hex="0058"/>
  <outline>
    <contour>
      <point x="80" y="1456" type="line"/>
      <point x="155" y="1456" type="line"/>
      <point x="601" y="763" type="line"/>
      <point x="643" y="763" type="line"/>
      <point x="1141" y="0" type="line"/>
      <point x="1064" y="0" type="line"/>
      <point x="604" y="706" type="line"/>
      <point x="562" y="706" type="line"/>
    </contour>
    <contour>
      <point x="28" y="0" type="line"/>
      <point x="559" y="817" type="line"/>
      <point x="562" y="817" type="line"/>
      <point x="965" y="1456" type="line"/>
      <point x="1180" y="1456" type="line"/>
      <point x="659" y="654" type="line"/>
      <point x="656" y="654" type="line"/>
      <point x="243" y="0" type="line"/>
    </contour>
  </outline>
</glyph>
<glyph name="backslash" format="1">
  <advance width="373"/>
  <unicode hex="005C"/>
  <outline>
    <contour>
      <point x="475" y="-125" type="line"/>
      <point x="414" y="-125" type="line"/>
      <point x="-102" y="1456" type="line"/>
      <point x="-42" y="1456" type="line"/>
    </contour>
  </outline>
</glyph>
<glyph name="bracketright" format="1">
  <advance width="471"/>
  <unicode hex="005D"/>
  <outline>
    <contour>
      <point x="324" y="-312" type="line"/>
      <point x="28" y="-312" type="line"/>
      <point x="28" y="-152" type="line"/>
      <point x="276" y="-152" type="line"/>
      <point x="276" y="1296" type="line"/>
      <point x="28" y="1296" type="line"/>
      <point x="28" y="1456" type="line"/>
      <point x="324" y="1456" type="line"/>
    </contour>
  </outline>
</glyph>
<glyph name="asciicircum" format="1">
  <advance width="874"/>
  <unicode hex="005E"/>
  <outline>
    <contour>
      <point x="22" y="729" type="line"/>
      <point x="406" y="1456" type="line"/>
      <point x="468" y="1456" type="line"/>
      <point x="850" y="729" type="line"/>
      <point x="768" y="729" type="line"/>
      <point x="437" y="1330" type="line"/>
      <point x="105" y="729" type="line"/>
    </contour>
  </outline>
</glyph>
<glyph name="grave" format="1">
  <advance width="855"/>
  <unicode hex="0060"/>
  <outline>
    <contour>
      <point x="377" y="1457" type="line"/>
      <point x="535" y="1185" type="line"/>
      <point x="535" y="1153" type="line"/>
      <point x="481" y="1153" type="line"/>
      <point x="267" y="1457" type="line"/>
    </contour>
    <contour>
      <point x="502" y="1052" type="move" name="_top"/>
    </contour>
  </outline>
</glyph>
<glyph name="a" format="1">
  <advance width="827"/>
  <unicode hex="0061"/>
  <outline>
    <contour>
      <point x="84" y="301" type="qcurve" smooth="yes"/>
      <point x="84" y="467"/>
      <point x="249" y="648"/>
      <point x="394" y="648" type="qcurve" smooth="yes"/>
      <point x="644" y="648" type="line"/>
      <point x="644" y="722" type="line" smooth="yes"/>
      <point x="644" y="818"/>
      <point x="540" y="933"/>
      <point x="425" y="933" type="qcurve" smooth="yes"/>
      <point x="310" y="933"/>
      <point x="199" y="837"/>
      <point x="199" y="771" type="qcurve" smooth="yes"/>
      <point x="199" y="762" type="line"/>
      <point x="147" y="762" type="line"/>
      <point x="147" y="769" type="line" smooth="yes"/>
      <point x="147" y="894"/>
      <point x="289" y="1082"/>
      <point x="429" y="1082" type="qcurve" smooth="yes"/>
      <point x="555" y="1082"/>
      <point x="695" y="904"/>
      <point x="695" y="720" type="qcurve" smooth="yes"/>
      <point x="695" y="236" type="line" smooth="yes"/>
      <point x="695" y="181"/>
      <point x="711" y="52"/>
      <point x="725" y="12" type="qcurve"/>
      <point x="725" y="0" type="line"/>
      <point x="667" y="0" type="line"/>
      <point x="664" y="6"/>
      <point x="649" y="74"/>
      <point x="641" y="148" type="qcurve"/>
      <point x="579" y="69"/>
      <point x="455" y="-20"/>
      <point x="355" y="-20" type="qcurve" smooth="yes"/>
      <point x="246" y="-20"/>
      <point x="84" y="135"/>
    </contour>
    <contour>
      <point x="139" y="326" type="qcurve" smooth="yes"/>
      <point x="139" y="237"/>
      <point x="249" y="132"/>
      <point x="352" y="132" type="qcurve" smooth="yes"/>
      <point x="474" y="132"/>
      <point x="640" y="294"/>
      <point x="644" y="367" type="qcurve"/>
      <point x="644" y="516" type="line"/>
      <point x="440" y="516" type="line" smooth="yes"/>
      <point x="304" y="516"/>
      <point x="139" y="427"/>
    </contour>
    <contour>
      <point x="424" y="1052" type="move" name="top"/>
    </contour>
  </outline>
</glyph>
<glyph name="d" format="1">
  <advance width="887"/>
  <unicode hex="0064"/>
  <outline>
    <contour>
      <point x="85" y="518" type="qcurve" smooth="yes"/>
      <point x="85" y="538" type="line" smooth="yes"/>
      <point x="85" y="798"/>
      <point x="265" y="1077"/>
      <point x="414" y="1077" type="qcurve" smooth="yes"/>
      <point x="509" y="1077"/>
      <point x="647" y="997"/>
      <point x="699" y="923" type="qcurve"/>
      <point x="699" y="1536" type="line"/>
      <point x="753" y="1536" type="line"/>
      <point x="753" y="0" type="line"/>
      <point x="707" y="0" type="line"/>
      <point x="703" y="158" type="line"/>
      <point x="652" y="75"/>
      <point x="503" y="-20"/>
      <point x="413" y="-20" type="qcurve" smooth="yes"/>
      <point x="265" y="-20"/>
      <point x="85" y="259"/>
    </contour>
    <contour>
      <point x="140" y="521" type="line" smooth="yes"/>
      <point x="140" y="364"/>
      <point x="273" y="137"/>
      <point x="422" y="137" type="qcurve" smooth="yes"/>
      <point x="534" y="137"/>
      <point x="665" y="251"/>
      <point x="699" y="335" type="qcurve"/>
      <point x="699" y="749" type="line"/>
      <point x="671" y="818"/>
      <point x="534" y="925"/>
      <point x="424" y="925" type="qcurve" smooth="yes"/>
      <point x="281" y="925"/>
      <point x="140" y="712"/>
      <point x="140" y="542" type="qcurve" smooth="yes"/>
    </contour>
  </outline>
</glyph>
<glyph name="g" format="1">
  <advance width="892"/>
  <unicode hex="0067"/>
  <outline>
    <contour>
      <point x="113" y="-284" type="qcurve"/>
      <point x="175" y="-193" type="line"/>
      <point x="206" y="-222"/>
      <point x="318" y="-275"/>
      <point x="417" y="-275" type="qcurve" smooth="yes"/>
      <point x="555" y="-275"/>
      <point x="697" y="-111"/>
      <point x="697" y="14" type="qcurve" smooth="yes"/>
      <point x="697" y="193" type="line"/>
      <point x="659" y="111"/>
      <point x="516" y="-10"/>
      <point x="416" y="-10" type="qcurve" smooth="yes"/>
      <point x="262" y="-10"/>
      <point x="85" y="273"/>
      <point x="85" y="516" type="qcurve" smooth="yes"/>
      <point x="85" y="537" type="line" smooth="yes"/>
      <point x="85" y="798"/>
      <point x="278" y="1077"/>
      <point x="409" y="1077" type="qcurve" smooth="yes"/>
      <point x="496" y="1077"/>
      <point x="657" y="968"/>
      <point x="698" y="878" type="qcurve"/>
      <point x="696" y="1052" type="line"/>
      <point x="752" y="1052" type="line"/>
      <point x="752" y="23" type="line" smooth="yes"/>
      <point x="752" y="-208"/>
      <point x="555" y="-437"/>
      <point x="428" y="-437" type="qcurve" smooth="yes"/>
      <point x="323" y="-437"/>
      <point x="143" y="-327"/>
    </contour>
    <contour>
      <point x="144" y="519" type="line" smooth="yes"/>
      <point x="144" y="340"/>
      <point x="285" y="147"/>
      <point x="418" y="147" type="qcurve" smooth="yes"/>
      <point x="536" y="147"/>
      <point x="667" y="273"/>
      <point x="698" y="361" type="qcurve"/>
      <point x="698" y="701" type="line"/>
      <point x="671" y="790"/>
      <point x="537" y="926"/>
      <point x="420" y="926" type="qcurve" smooth="yes"/>
      <point x="290" y="926"/>
      <point x="144" y="722"/>
      <point x="144" y="540" type="qcurve" smooth="yes"/>
    </contour>
  </outline>
</glyph>
<glyph name="h" format="1">
  <advance width="863"/>
  <unicode hex="0068"/>
  <outline>
    <contour>
      <point x="148.0" y="0.0" type="line"/>
      <point x="148.0" y="1536.0" type="line"/>
      <point x="202.0" y="1536.0" type="line"/>
      <point x="202" y="924" type="line"/>
      <point x="235" y="974"/>
      <point x="380" y="1072"/>
      <point x="478" y="1072" type="qcurve" smooth="yes"/>
      <point x="592" y="1072"/>
      <point x="735" y="898"/>
      <point x="735" y="723" type="qcurve" smooth="yes"/>
      <point x="735.0" y="0.0" type="line"/>
      <point x="681.0" y="0.0" type="line"/>
      <point x="681.0" y="681.0" type="line" smooth="yes"/>
      <point x="681.0" y="807.0"/>
      <point x="567.0" y="916.0"/>
      <point x="465.0" y="916.0" type="qcurve" smooth="yes"/>
      <point x="375.0" y="916.0"/>
      <point x="239.0" y="819.0"/>
      <point x="202.0" y="743.0" type="qcurve"/>
      <point x="202.0" y="0.0" type="line"/>
    </contour>
  </outline>
</glyph>
<glyph name="j" format="1">
  <advance width="358"/>
  <unicode hex="006A"/>
  <outline>
    <contour>
      <point x="-82" y="-411" type="qcurve"/>
      <point x="-82" y="-260" type="line"/>
      <point x="-59" y="-270"/>
      <point x="-4" y="-280"/>
      <point x="23" y="-280" type="qcurve" smooth="yes"/>
      <point x="80" y="-280"/>
      <point x="146" y="-212"/>
      <point x="146" y="-129" type="qcurve" smooth="yes"/>
      <point x="146" y="1052" type="line"/>
      <point x="200" y="1052" type="line"/>
      <point x="200" y="-76" type="line" smooth="yes"/>
      <point x="200" y="-269"/>
      <point x="117" y="-437"/>
      <point x="35" y="-437" type="qcurve" smooth="yes"/>
      <point x="12" y="-437"/>
      <point x="-60" y="-423"/>
    </contour>
    <contour>
      <point x="131" y="1369" type="qcurve" smooth="yes"/>
      <point x="131" y="1421"/>
      <point x="152" y="1476"/>
      <point x="171" y="1476" type="qcurve" smooth="yes"/>
      <point x="190" y="1476"/>
      <point x="211" y="1421"/>
      <point x="211" y="1369" type="qcurve" smooth="yes"/>
      <point x="211" y="1319"/>
      <point x="190" y="1265"/>
      <point x="171" y="1265" type="qcurve" smooth="yes"/>
      <point x="152" y="1265"/>
      <point x="131" y="1319"/>
    </contour>
  </outline>
</glyph>
<glyph name="m" format="1">
  <advance width="1368"/>
  <unicode hex="006D"/>
  <outline>
    <contour>
      <point x="148" y="0" type="line"/>
      <point x="148" y="1052" type="line"/>
      <point x="194" y="1052" type="line"/>
      <point x="194" y="917" type="line"/>
      <point x="196" y="917" type="line"/>
      <point x="235" y="974"/>
      <point x="380" y="1072"/>
      <point x="469" y="1072" type="qcurve" smooth="yes"/>
      <point x="558" y="1072"/>
      <point x="673" y="970"/>
      <point x="695" y="916" type="qcurve"/>
      <point x="733" y="976"/>
      <point x="884" y="1072"/>
      <point x="987" y="1072" type="qcurve" smooth="yes"/>
      <point x="1105" y="1072"/>
      <point x="1230" y="895"/>
      <point x="1230" y="681" type="qcurve" smooth="yes"/>
      <point x="1230" y="0" type="line"/>
      <point x="1176" y="0" type="line"/>
      <point x="1176" y="683" type="line" smooth="yes"/>
      <point x="1176" y="811"/>
      <point x="1060" y="916"/>
      <point x="955" y="916" type="qcurve" smooth="yes"/>
      <point x="846" y="916"/>
      <point x="732" y="804"/>
      <point x="716" y="764" type="qcurve"/>
      <point x="716" y="0" type="line"/>
      <point x="662" y="0" type="line"/>
      <point x="662" y="682" type="line" smooth="yes"/>
      <point x="662" y="808"/>
      <point x="545" y="916"/>
      <point x="441" y="916" type="qcurve" smooth="yes"/>
      <point x="350" y="916"/>
      <point x="233" y="831"/>
      <point x="202" y="763" type="qcurve"/>
      <point x="202" y="0" type="line"/>
    </contour>
  </outline>
</glyph>
<glyph name="n" format="1">
  <advance width="872"/>
  <unicode hex="006E"/>
  <outline>
    <contour>
      <point x="148" y="0" type="line"/>
      <point x="148" y="1052" type="line"/>
      <point x="194" y="1052" type="line"/>
      <point x="194" y="917" type="line"/>
      <point x="197" y="917" type="line"/>
      <point x="235" y="974"/>
      <point x="380" y="1072"/>
      <point x="478" y="1072" type="qcurve" smooth="yes"/>
      <point x="591" y="1072"/>
      <point x="735" y="898"/>
      <point x="735" y="721" type="qcurve" smooth="yes"/>
      <point x="735" y="0" type="line"/>
      <point x="681" y="0" type="line"/>
      <point x="681" y="681" type="line" smooth="yes"/>
      <point x="681" y="807"/>
      <point x="568" y="916"/>
      <point x="465" y="916" type="qcurve" smooth="yes"/>
      <point x="375" y="916"/>
      <point x="239" y="819"/>
      <point x="202" y="743" type="qcurve"/>
      <point x="202" y="0" type="line"/>
    </contour>
    <contour>
      <point x="466" y="1052" type="move" name="top"/>
    </contour>
  </outline>
</glyph>
<glyph name="p" format="1">
  <advance width="888"/>
  <unicode hex="0070"/>
  <outline>
    <contour>
      <point x="148" y="-416" type="line"/>
      <point x="148" y="1052" type="line"/>
      <point x="202" y="1052" type="line"/>
      <point x="202" y="929" type="line"/>
      <point x="250" y="994"/>
      <point x="413" y="1082"/>
      <point x="482" y="1082" type="qcurve" smooth="yes"/>
      <point x="630" y="1082"/>
      <point x="818" y="809"/>
      <point x="818" y="550" type="qcurve" smooth="yes"/>
      <point x="818" y="529" type="line" smooth="yes"/>
      <point x="818" y="273"/>
      <point x="622" y="-15"/>
      <point x="483" y="-15" type="qcurve" smooth="yes"/>
      <point x="410" y="-15"/>
      <point x="257" y="56"/>
      <point x="202" y="128" type="qcurve"/>
      <point x="202" y="-416" type="line"/>
    </contour>
    <contour>
      <point x="202" y="321" type="line"/>
      <point x="229" y="253"/>
      <point x="366" y="137"/>
      <point x="476" y="137" type="qcurve" smooth="yes"/>
      <point x="625" y="137"/>
      <point x="763" y="360"/>
      <point x="763" y="529" type="qcurve" smooth="yes"/>
      <point x="763" y="550" type="line" smooth="yes"/>
      <point x="763" y="703"/>
      <point x="625" y="926"/>
      <point x="474" y="926" type="qcurve" smooth="yes"/>
      <point x="367" y="926"/>
      <point x="235" y="822"/>
      <point x="202" y="744" type="qcurve"/>
    </contour>
  </outline>
</glyph>
<glyph name="s" format="1">
  <advance width="746"/>
  <unicode hex="0073"/>
  <outline>
    <contour>
      <point x="80" y="312" type="line"/>
      <point x="134" y="312" type="line"/>
      <point x="134" y="307" type="line" smooth="yes"/>
      <point x="134.0" y="226.0"/>
      <point x="261.0" y="121.0"/>
      <point x="379" y="121" type="qcurve" smooth="yes"/>
      <point x="492.0" y="121.0"/>
      <point x="613.0" y="208.0"/>
      <point x="613" y="275" type="qcurve" smooth="yes"/>
      <point x="613.0" y="355.0"/>
      <point x="487" y="467"/>
      <point x="372" y="515" type="qcurve" smooth="yes"/>
      <point x="264" y="560"/>
      <point x="110" y="686"/>
      <point x="110" y="798" type="qcurve" smooth="yes"/>
      <point x="110" y="921"/>
      <point x="259.0" y="1084.0"/>
      <point x="375" y="1084" type="qcurve" smooth="yes"/>
      <point x="495.0" y="1084.0"/>
      <point x="650.0" y="916.0"/>
      <point x="650" y="760" type="qcurve" smooth="yes"/>
      <point x="650" y="757" type="line"/>
      <point x="596" y="757" type="line"/>
      <point x="596" y="759" type="line" smooth="yes"/>
      <point x="596.0" y="834.0"/>
      <point x="481.0" y="932.0"/>
      <point x="375" y="932" type="qcurve" smooth="yes"/>
      <point x="273.0" y="932.0"/>
      <point x="164.0" y="851.0"/>
      <point x="164" y="788" type="qcurve" smooth="yes"/>
      <point x="164.0" y="717.0"/>
      <point x="289" y="609"/>
      <point x="397" y="565" type="qcurve" smooth="yes"/>
      <point x="511" y="519"/>
      <point x="666" y="394"/>
      <point x="666" y="270" type="qcurve" smooth="yes"/>
      <point x="666" y="135"/>
      <point x="504.0" y="-30.0"/>
      <point x="378" y="-30" type="qcurve" smooth="yes"/>
      <point x="248.0" y="-30.0"/>
      <point x="80.0" y="146.0"/>
      <point x="80" y="309" type="qcurve" smooth="yes"/>
    </contour>
  </outline>
</glyph>
<glyph name="u" format="1">
  <advance width="873"/>
  <unicode hex="0075"/>
  <outline>
    <contour>
      <point x="138" y="384" type="qcurve" smooth="yes"/>
      <point x="138" y="1052" type="line"/>
      <point x="192" y="1052" type="line"/>
      <point x="192" y="382" type="line" smooth="yes"/>
      <point x="192" y="257"/>
      <point x="287" y="133"/>
      <point x="398" y="133" type="qcurve" smooth="yes"/>
      <point x="504" y="133"/>
      <point x="635" y="215"/>
      <point x="673" y="294" type="qcurve"/>
      <point x="673" y="1052" type="line"/>
      <point x="727" y="1052" type="line"/>
      <point x="727" y="0" type="line"/>
      <point x="676" y="0" type="line"/>
      <point x="670" y="140" type="line"/>
      <point x="617" y="51"/>
      <point x="482" y="-24"/>
      <point x="390" y="-24" type="qcurve" smooth="yes"/>
      <point x="281" y="-24"/>
      <point x="138" y="152"/>
    </contour>
    <contour>
      <point x="430.0" y="1052.0" type="move" name="top"/>
    </contour>
  </outline>
</glyph>
<glyph name="w" format="1">
  <advance width="1174"/>
  <unicode hex="0077"/>
  <outline>
    <contour>
      <point x="24" y="1052" type="line"/>
      <point x="81" y="1052" type="line"/>
      <point x="294" y="359" type="line" smooth="yes"/>
      <point x="307" y="317"/>
      <point x="333" y="233"/>
      <point x="339" y="200" type="qcurve"/>
      <point x="342" y="200" type="line"/>
      <point x="346" y="233"/>
      <point x="368" y="316"/>
      <point x="381" y="358" type="qcurve" smooth="yes"/>
      <point x="604" y="1052" type="line"/>
      <point x="662" y="1052" type="line"/>
      <point x="889" y="359" type="line" smooth="yes"/>
      <point x="903" y="317"/>
      <point x="923" y="233"/>
      <point x="928" y="200" type="qcurve"/>
      <point x="931" y="200" type="line"/>
      <point x="934" y="233"/>
      <point x="953" y="316"/>
      <point x="964" y="358" type="qcurve" smooth="yes"/>
      <point x="1155" y="1052" type="line"/>
      <point x="1339" y="1052" type="line"/>
      <point x="1015" y="0" type="line"/>
      <point x="961" y="0" type="line"/>
      <point x="729" y="679" type="line" smooth="yes"/>
      <point x="715" y="720"/>
      <point x="688" y="804"/>
      <point x="680" y="837" type="qcurve"/>
      <point x="677" y="837" type="line"/>
      <point x="666" y="804"/>
      <point x="644" y="719"/>
      <point x="630" y="678" type="qcurve" smooth="yes"/>
      <point x="402" y="0" type="line"/>
      <point x="348" y="0" type="line"/>
    </contour>
  </outline>
</glyph>
<glyph name="braceleft" format="1">
  <advance width="493"/>
  <unicode hex="007B"/>
  <outline>
    <contour>
      <point x="243" y="362" type="line" smooth="yes"/>
      <point x="257" y="435"/>
      <point x="141" y="513"/>
      <point x="64" y="513" type="qcurve"/>
      <point x="64" y="645" type="line"/>
      <point x="141" y="645"/>
      <point x="258" y="723"/>
      <point x="243" y="796" type="qcurve" smooth="yes"/>
      <point x="200" y="998" type="line" smooth="yes"/>
      <point x="161" y="1187"/>
      <point x="389" y="1460"/>
      <point x="471" y="1460" type="qcurve"/>
      <point x="471" y="1315" type="line"/>
      <point x="369" y="1315"/>
      <point x="234" y="1137"/>
      <point x="260" y="1012" type="qcurve" smooth="yes"/>
      <point x="295" y="850" type="line" smooth="yes"/>
      <point x="320" y="731"/>
      <point x="260" y="604"/>
      <point x="185" y="579" type="qcurve"/>
      <point x="259" y="558"/>
      <point x="319" y="427"/>
      <point x="294" y="308" type="qcurve" smooth="yes"/>
      <point x="252" y="96" type="line" smooth="yes"/>
      <point x="235" y="11"/>
      <point x="369" y="-166"/>
      <point x="471" y="-166" type="qcurve"/>
      <point x="471" y="-312" type="line"/>
      <point x="389" y="-312"/>
      <point x="162" y="-40"/>
      <point x="200" y="150" type="qcurve" smooth="yes"/>
    </contour>
  </outline>
</glyph>
<glyph name="cent" format="1">
  <advance width="874"/>
  <unicode hex="00A2"/>
  <outline>
    <contour>
      <point x="422" y="540" type="line"/>
      <point x="422" y="953" type="line"/>
      <point x="417" y="981" type="line"/>
      <point x="417" y="1318" type="line"/>
      <point x="442" y="1318" type="line"/>
      <point x="442" y="983" type="line"/>
      <point x="438" y="949" type="line"/>
      <point x="438" y="540" type="line"/>
    </contour>
    <contour>
      <point x="417" y="-245" type="line"/>
      <point x="417" y="77" type="line"/>
      <point x="422" y="107" type="line"/>
      <point x="422" y="540" type="line"/>
      <point x="438" y="540" type="line"/>
      <point x="438" y="106" type="line"/>
      <point x="442" y="71" type="line"/>
      <point x="442" y="-245" type="line"/>
    </contour>
    <contour>
      <point x="84" y="531" type="qcurve" smooth="yes"/>
      <point x="84" y="553" type="line" smooth="yes"/>
      <point x="84" y="797"/>
      <point x="283" y="1082"/>
      <point x="429" y="1082" type="qcurve" smooth="yes"/>
      <point x="581" y="1082"/>
      <point x="734" y="855"/>
      <point x="734" y="693" type="qcurve" smooth="yes"/>
      <point x="734" y="690" type="line"/>
      <point x="688" y="690" type="line"/>
      <point x="688" y="693" type="line" smooth="yes"/>
      <point x="688" y="747"/>
      <point x="581" y="930"/>
      <point x="429" y="930" type="qcurve" smooth="yes"/>
      <point x="277" y="930"/>
      <point x="139" y="699"/>
      <point x="139" y="553" type="qcurve" smooth="yes"/>
      <point x="139" y="531" type="line" smooth="yes"/>
      <point x="139" y="387"/>
      <point x="274" y="142"/>
      <point x="429" y="142" type="qcurve" smooth="yes"/>
      <point x="582" y="142"/>
      <point x="688" y="290"/>
      <point x="688" y="347" type="qcurve" smooth="yes"/>
      <point x="688" y="357" type="line"/>
      <point x="734" y="357" type="line"/>
      <point x="734" y="347" type="line" smooth="yes"/>
      <point x="734" y="208"/>
      <point x="587" y="-10"/>
      <point x="429" y="-10" type="qcurve" smooth="yes"/>
      <point x="271" y="-10"/>
      <point x="84" y="295"/>
    </contour>
  </outline>
</glyph>
<glyph name="yen" format="1">
  <advance width="833"/>
  <unicode hex="00A5"/>
  <outline>
    <contour>
      <point x="56" y="582" type="line"/>
      <point x="56" y="727" type="line"/>
      <point x="777" y="727" type="line"/>
      <point x="777" y="582" type="line"/>
    </contour>
    <contour>
      <point x="56" y="272" type="line"/>
      <point x="56" y="416" type="line"/>
      <point x="777" y="416" type="line"/>
      <point x="777" y="272" type="line"/>
    </contour>
    <contour>
      <point x="16" y="1456" type="line"/>
      <point x="103" y="1456" type="line"/>
      <point x="325" y="854" type="line" smooth="yes"/>
      <point x="332" y="834"/>
      <point x="358" y="765"/>
      <point x="370" y="726" type="qcurve"/>
      <point x="462" y="726" type="line"/>
      <point x="474" y="764"/>
      <point x="497" y="820"/>
      <point x="510" y="856" type="qcurve" smooth="yes"/>
      <point x="724" y="1456" type="line"/>
      <point x="817" y="1456" type="line"/>
      <point x="436" y="516" type="line"/>
      <point x="436" y="0" type="line"/>
      <point x="388" y="0" type="line"/>
      <point x="388" y="515" type="line"/>
    </contour>
  </outline>
</glyph>
<glyph name="section" format="1">
  <advance width="903"/>
  <unicode hex="00A7"/>
  <outline>
    <contour>
      <point x="769" y="-97" type="qcurve" smooth="yes"/>
      <point x="769" y="-280"/>
      <point x="584" y="-471"/>
      <point x="444" y="-471" type="qcurve" smooth="yes"/>
      <point x="313" y="-471"/>
      <point x="126" y="-270"/>
      <point x="126" y="-64" type="qcurve" smooth="yes"/>
      <point x="126" y="-49" type="line"/>
      <point x="162" y="-49" type="line"/>
      <point x="162" y="-68" type="line" smooth="yes"/>
      <point x="162" y="-168"/>
      <point x="308" y="-311"/>
      <point x="448" y="-311" type="qcurve" smooth="yes"/>
      <point x="590" y="-311"/>
      <point x="725" y="-187"/>
      <point x="725" y="-108" type="qcurve" smooth="yes"/>
      <point x="725" y="-33"/>
      <point x="585" y="89"/>
      <point x="395" y="184" type="qcurve" smooth="yes"/>
      <point x="273" y="246"/>
      <point x="133" y="400"/>
      <point x="133" y="565" type="qcurve" smooth="yes"/>
      <point x="133" y="692"/>
      <point x="206" y="823"/>
      <point x="274" y="856" type="qcurve"/>
      <point x="228" y="898"/>
      <point x="181" y="1011"/>
      <point x="181" y="1125" type="qcurve" smooth="yes"/>
      <point x="181" y="1281"/>
      <point x="361" y="1486"/>
      <point x="470" y="1486" type="qcurve" smooth="yes"/>
      <point x="592" y="1486"/>
      <point x="756" y="1294"/>
      <point x="756" y="1093" type="qcurve" smooth="yes"/>
      <point x="756" y="1079" type="line"/>
      <point x="720" y="1079" type="line"/>
      <point x="720" y="1097" type="line" smooth="yes"/>
      <point x="720" y="1192"/>
      <point x="601" y="1322"/>
      <point x="467" y="1322" type="qcurve" smooth="yes"/>
      <point x="330" y="1322"/>
      <point x="225" y="1209"/>
      <point x="225" y="1136" type="qcurve" smooth="yes"/>
      <point x="225" y="1065"/>
      <point x="344" y="950"/>
      <point x="524" y="853" type="qcurve" smooth="yes"/>
      <point x="635" y="793"/>
      <point x="769" y="655"/>
      <point x="769" y="496" type="qcurve" smooth="yes"/>
      <point x="769" y="359"/>
      <point x="680" y="244"/>
      <point x="600" y="225" type="qcurve"/>
      <point x="699" y="156"/>
      <point x="769" y="29"/>
    </contour>
    <contour>
      <point x="431" y="312" type="qcurve" smooth="yes"/>
      <point x="539" y="268"/>
      <point x="733" y="404"/>
      <point x="733" y="479" type="qcurve" smooth="yes"/>
      <point x="733" y="565"/>
      <point x="585" y="665"/>
      <point x="422" y="768" type="qcurve" smooth="yes"/>
      <point x="335" y="823"/>
      <point x="162" y="704"/>
      <point x="162" y="583" type="qcurve" smooth="yes"/>
      <point x="162" y="496"/>
      <point x="296" y="366"/>
    </contour>
  </outline>
</glyph>
<glyph name="copyright" format="1">
  <advance width="1399"/>
  <unicode hex="00A9"/>
  <outline>
    <contour>
      <point x="114" y="699" type="qcurve" smooth="yes"/>
      <point x="114" y="469"/>
      <point x="434" y="64"/>
      <point x="700" y="64" type="qcurve" smooth="yes"/>
      <point x="976" y="64"/>
      <point x="1284" y="443"/>
      <point x="1284" y="699" type="qcurve" smooth="yes"/>
      <point x="1284" y="928"/>
      <point x="965" y="1331"/>
      <point x="700" y="1331" type="qcurve" smooth="yes"/>
      <point x="424" y="1331"/>
      <point x="114" y="939"/>
    </contour>
    <contour>
      <point x="94" y="699" type="qcurve" smooth="yes"/>
      <point x="94" y="1051"/>
      <point x="478" y="1479"/>
      <point x="700" y="1479" type="qcurve" smooth="yes"/>
      <point x="922" y="1479"/>
      <point x="1305" y="1051"/>
      <point x="1305" y="699" type="qcurve" smooth="yes"/>
      <point x="1305" y="338"/>
      <point x="930" y="-82"/>
      <point x="700" y="-82" type="qcurve" smooth="yes"/>
      <point x="478" y="-82"/>
      <point x="94" y="345"/>
    </contour>
    <contour>
      <point x="400" y="669" type="qcurve" smooth="yes"/>
      <point x="400" y="757" type="line" smooth="yes"/>
      <point x="400" y="965"/>
      <point x="587" y="1174"/>
      <point x="697" y="1174" type="qcurve" smooth="yes"/>
      <point x="810" y="1174"/>
      <point x="965" y="1019"/>
      <point x="967" y="911" type="qcurve" smooth="yes"/>
      <point x="969" y="832" type="line"/>
      <point x="944" y="832" type="line"/>
      <point x="944" y="872" type="line" smooth="yes"/>
      <point x="944" y="926"/>
      <point x="835" y="1027"/>
      <point x="702" y="1027" type="qcurve" smooth="yes"/>
      <point x="566" y="1027"/>
      <point x="442" y="871"/>
      <point x="442" y="758" type="qcurve" smooth="yes"/>
      <point x="442" y="669" type="line" smooth="yes"/>
      <point x="442" y="573"/>
      <point x="564" y="402"/>
      <point x="700" y="402" type="qcurve" smooth="yes"/>
      <point x="821" y="402"/>
      <point x="933" y="473"/>
      <point x="941" y="582" type="qcurve" smooth="yes"/>
      <point x="941" y="580" type="line"/>
      <point x="969" y="580" type="line"/>
      <point x="967" y="508" type="line" smooth="yes"/>
      <point x="964" y="407"/>
      <point x="806" y="252"/>
      <point x="699" y="252" type="qcurve" smooth="yes"/>
      <point x="591" y="252"/>
      <point x="400" y="464"/>
    </contour>
  </outline>
</glyph>
<glyph name="plusminus" format="1">
  <advance width="892"/>
  <unicode hex="00B1"/>
  <outline>
    <contour>
      <point x="127" y="613" type="line"/>
      <point x="127" y="775" type="line"/>
      <point x="765" y="775" type="line"/>
      <point x="765" y="613" type="line"/>
    </contour>
    <contour>
      <point x="423" y="229" type="line"/>
      <point x="423" y="1207" type="line"/>
      <point x="467" y="1207" type="line"/>
      <point x="467" y="229" type="line"/>
    </contour>
    <contour>
      <point x="141" y="1" type="line"/>
      <point x="141" y="163" type="line"/>
      <point x="747" y="163" type="line"/>
      <point x="747" y="1" type="line"/>
    </contour>
  </outline>
</glyph>
<glyph name="questiondown" format="1">
  <advance width="737"/>
  <unicode hex="00BF"/>
  <outline>
    <contour>
      <point x="389" y="766" type="line"/>
      <point x="438" y="766" type="line"/>
      <point x="438" y="761" type="line" smooth="yes"/>
      <point x="438" y="606"/>
      <point x="390" y="476"/>
      <point x="337" y="416" type="qcurve" smooth="yes"/>
      <point x="241" y="304"/>
      <point x="145" y="154"/>
      <point x="145" y="75" type="qcurve" smooth="yes"/>
      <point x="145" y="-9"/>
      <point x="255" y="-138"/>
      <point x="382" y="-138" type="qcurve" smooth="yes"/>
      <point x="508" y="-138"/>
      <point x="629" y="-17"/>
      <point x="629" y="59" type="qcurve" smooth="yes"/>
      <point x="629" y="79" type="line"/>
      <point x="677" y="79" type="line"/>
      <point x="677" y="59" type="line" smooth="yes"/>
      <point x="677" y="-124"/>
      <point x="504" y="-300"/>
      <point x="382" y="-300" type="qcurve" smooth="yes"/>
      <point x="260" y="-300"/>
      <point x="96" y="-113"/>
      <point x="96" y="80" type="qcurve" smooth="yes"/>
      <point x="96" y="237"/>
      <point x="211" y="425"/>
      <point x="270" y="487" type="qcurve" smooth="yes"/>
      <point x="349" y="571"/>
      <point x="389" y="724"/>
      <point x="389" y="764" type="qcurve" smooth="yes"/>
    </contour>
    <contour>
      <point x="454" y="1082" type="qcurve" smooth="yes"/>
      <point x="454" y="1013"/>
      <point x="416" y="965"/>
      <point x="406" y="965" type="qcurve" smooth="yes"/>
      <point x="395" y="965"/>
      <point x="358" y="1013"/>
      <point x="358" y="1082" type="qcurve" smooth="yes"/>
      <point x="358" y="1150"/>
      <point x="395" y="1198"/>
      <point x="406" y="1198" type="qcurve" smooth="yes"/>
      <point x="416" y="1198"/>
      <point x="454" y="1150"/>
    </contour>
  </outline>
</glyph>
<glyph name="AE" format="1">
  <advance width="1422"/>
  <unicode hex="00C6"/>
  <outline>
    <contour>
      <point x="220" y="387" type="line"/>
      <point x="271" y="539" type="line"/>
      <point x="672" y="539" type="line"/>
      <point x="672" y="387" type="line"/>
    </contour>
    <contour>
      <point x="741" y="0" type="line"/>
      <point x="741" y="1532" type="line"/>
      <point x="3" y="0" type="line"/>
      <point x="-80" y="0" type="line"/>
      <point x="621" y="1456" type="line"/>
      <point x="1346" y="1456" type="line"/>
      <point x="1346" y="1298" type="line"/>
      <point x="792" y="1298" type="line"/>
      <point x="792" y="830" type="line"/>
      <point x="1268" y="830" type="line"/>
      <point x="1268" y="673" type="line"/>
      <point x="792" y="673" type="line"/>
      <point x="792" y="157" type="line"/>
      <point x="1354" y="157" type="line"/>
      <point x="1354" y="0" type="line"/>
    </contour>
  </outline>
</glyph>
<glyph name="circumflex" format="1">
  <advance width="801"/>
  <unicode hex="02C6"/>
  <outline>
    <contour>
      <point x="426" y="1456" type="line"/>
      <point x="611" y="1182" type="line"/>
      <point x="611" y="1153" type="line"/>
      <point x="561" y="1153" type="line"/>
      <point x="400" y="1367" type="line"/>
      <point x="239" y="1153" type="line"/>
      <point x="190" y="1153" type="line"/>
      <point x="190" y="1183" type="line"/>
      <point x="373" y="1456" type="line"/>
    </contour>
    <contour>
      <point x="401" y="1052" type="move" name="_top"/>
    </contour>
  </outline>
</glyph>
<glyph name="ring" format="1">
  <advance width="833"/>
  <unicode hex="02DA"/>
  <outline>
    <contour>
      <point x="272" y="1359" type="qcurve" smooth="yes"/>
      <point x="272" y="1471"/>
      <point x="369" y="1590"/>
      <point x="417" y="1590" type="qcurve" smooth="yes"/>
      <point x="464" y="1590"/>
      <point x="561" y="1471"/>
      <point x="561" y="1359" type="qcurve" smooth="yes"/>
      <point x="561" y="1245"/>
      <point x="464" y="1132"/>
      <point x="417" y="1132" type="qcurve" smooth="yes"/>
      <point x="369" y="1132"/>
      <point x="272" y="1245"/>
    </contour>
    <contour>
      <point x="276" y="1359" type="qcurve" smooth="yes"/>
      <point x="276" y="1333"/>
      <point x="342" y="1244"/>
      <point x="417" y="1244" type="qcurve" smooth="yes"/>
      <point x="491" y="1244"/>
      <point x="557" y="1331"/>
      <point x="557" y="1359" type="qcurve" smooth="yes"/>
      <point x="557" y="1386"/>
      <point x="491" y="1477"/>
      <point x="417" y="1477" type="qcurve" smooth="yes"/>
      <point x="342" y="1477"/>
      <point x="276" y="1386"/>
    </contour>
    <contour>
      <point x="417" y="1052" type="move" name="_top"/>
    </contour>
  </outline>
</glyph>
<glyph name="Germandbls" format="1">
  <advance width="1081"/>
  <unicode hex="1E9E"/>
  <outline>
    <contour>
      <point x="971" y="390" type="line" smooth="yes"/>
      <point x="971" y="187"/>
      <point x="741" y="-22"/>
      <point x="580" y="-22" type="qcurve" smooth="yes"/>
      <point x="580" y="-22"/>
      <point x="480" y="-16"/>
      <point x="465" y="-13" type="qcurve"/>
      <point x="485" y="130" type="line"/>
      <point x="425" y="144"/>
      <point x="508" y="138"/>
      <point x="569" y="138" type="qcurve" smooth="yes"/>
      <point x="743" y="138"/>
      <point x="916" y="287"/>
      <point x="916" y="378" type="qcurve" smooth="yes"/>
      <point x="916" y="431" type="line" smooth="yes"/>
      <point x="916" y="508"/>
      <point x="760" y="651"/>
      <point x="592" y="687" type="qcurve"/>
      <point x="550" y="843" type="line"/>
      <point x="827" y="1122" type="line"/>
      <point x="821" y="1193"/>
      <point x="697" y="1321"/>
      <point x="552" y="1321" type="qcurve" smooth="yes"/>
      <point x="384" y="1321"/>
      <point x="224" y="1178"/>
      <point x="224" y="1044" type="qcurve" smooth="yes"/>
      <point x="224" y="0" type="line"/>
      <point x="169" y="0" type="line"/>
      <point x="169" y="1032" type="line" smooth="yes"/>
      <point x="169" y="1265"/>
      <point x="408" y="1486"/>
      <point x="560" y="1486" type="qcurve" smooth="yes"/>
      <point x="715" y="1486"/>
      <point x="888" y="1256"/>
      <point x="888" y="1071" type="qcurve" smooth="yes"/>
      <point x="888" y="1040" type="line"/>
      <point x="635" y="803" type="line"/>
      <point x="635" y="815" type="line"/>
      <point x="796" y="784"/>
      <point x="971" y="612"/>
      <point x="971" y="449" type="qcurve" smooth="yes"/>
    </contour>
  </outline>
</glyph>
<glyph name="quotedblleft" format="1">
  <advance width="609"/>
  <unicode hex="201C"/>
  <outline>
    <contour>
      <point x="126" y="1073" type="line"/>
      <point x="126" y="1194" type="line" smooth="yes"/>
      <point x="126" y="1310"/>
      <point x="193" y="1497"/>
      <point x="223" y="1527" type="qcurve"/>
      <point x="276" y="1485" type="line"/>
      <point x="230" y="1404"/>
      <point x="177" y="1252"/>
      <point x="177" y="1197" type="qcurve" smooth="yes"/>
      <point x="177" y="1073" type="line"/>
    </contour>
    <contour>
      <point x="446" y="1073" type="line"/>
      <point x="446" y="1194" type="line" smooth="yes"/>
      <point x="446" y="1310"/>
      <point x="513" y="1497"/>
      <point x="543" y="1527" type="qcurve"/>
      <point x="596" y="1485" type="line"/>
      <point x="550" y="1404"/>
      <point x="497" y="1252"/>
      <point x="497" y="1197" type="qcurve" smooth="yes"/>
      <point x="497" y="1073" type="line"/>
    </contour>
  </outline>
</glyph>
<glyph name="quotedblright" format="1">
  <advance width="609"/>
  <unicode hex="201D"/>
  <outline>
    <contour>
      <point x="95" y="1044" type="line"/>
      <point x="141" y="1125"/>
      <point x="194" y="1277"/>
      <point x="194" y="1332" type="qcurve" smooth="yes"/>
      <point x="194" y="1456" type="line"/>
      <point x="245" y="1456" type="line"/>
      <point x="245" y="1335" type="line" smooth="yes"/>
      <point x="245" y="1219"/>
      <point x="178" y="1032"/>
      <point x="148" y="1002" type="qcurve"/>
    </contour>
    <contour>
      <point x="415" y="1044" type="line"/>
      <point x="461" y="1125"/>
      <point x="514" y="1277"/>
      <point x="514" y="1332" type="qcurve" smooth="yes"/>
      <point x="514" y="1456" type="line"/>
      <point x="565" y="1456" type="line"/>
      <point x="565" y="1335" type="line" smooth="yes"/>
      <point x="565" y="1219"/>
      <point x="498" y="1032"/>
      <point x="468" y="1002" type="qcurve"/>
    </contour>
  </outline>
</glyph>
<glyph name="perthousand" format="1">
  <advance width="1931"/>
  <unicode hex="2030"/>
  <outline>
    <contour>
      <point x="72" y="982" type="qcurve" smooth="yes"/>
      <point x="72" y="1169" type="line" smooth="yes"/>
      <point x="72" y="1317"/>
      <point x="209" y="1485"/>
      <point x="284" y="1485" type="qcurve" smooth="yes"/>
      <point x="362" y="1485"/>
      <point x="497" y="1317"/>
      <point x="497" y="1169" type="qcurve" smooth="yes"/>
      <point x="497" y="982" type="line" smooth="yes"/>
      <point x="497" y="835"/>
      <point x="362" y="668"/>
      <point x="286" y="668" type="qcurve" smooth="yes"/>
      <point x="210" y="668"/>
      <point x="72" y="835"/>
    </contour>
    <contour>
      <point x="105" y="980" type="line" smooth="yes"/>
      <point x="105" y="949"/>
      <point x="185" y="821"/>
      <point x="286" y="821" type="qcurve" smooth="yes"/>
      <point x="387" y="821"/>
      <point x="464" y="949"/>
      <point x="464" y="980" type="qcurve" smooth="yes"/>
      <point x="464" y="1171" type="line" smooth="yes"/>
      <point x="464" y="1203"/>
      <point x="384" y="1332"/>
      <point x="284" y="1332" type="qcurve" smooth="yes"/>
      <point x="184" y="1332"/>
      <point x="105" y="1203"/>
      <point x="105" y="1171" type="qcurve" smooth="yes"/>
    </contour>
    <contour>
      <point x="1028" y="1416" type="line"/>
      <point x="276" y="-6" type="line"/>
      <point x="239" y="22" type="line"/>
      <point x="991" y="1444" type="line"/>
    </contour>
    <contour>
      <point x="802" y="291" type="qcurve" smooth="yes"/>
      <point x="802" y="478" type="line" smooth="yes"/>
      <point x="802" y="627"/>
      <point x="931" y="794"/>
      <point x="1014" y="794" type="qcurve" smooth="yes"/>
      <point x="1100" y="794"/>
      <point x="1227" y="627"/>
      <point x="1227" y="478" type="qcurve" smooth="yes"/>
      <point x="1227" y="291" type="line" smooth="yes"/>
      <point x="1227" y="143"/>
      <point x="1100" y="-23"/>
      <point x="1016" y="-23" type="qcurve" smooth="yes"/>
      <point x="932" y="-23"/>
      <point x="802" y="143"/>
    </contour>
    <contour>
      <point x="835" y="289" type="line" smooth="yes"/>
      <point x="835" y="259"/>
      <point x="906" y="130"/>
      <point x="1016" y="130" type="qcurve" smooth="yes"/>
      <point x="1126" y="130"/>
      <point x="1194" y="260"/>
      <point x="1194" y="289" type="qcurve" smooth="yes"/>
      <point x="1194" y="480" type="line" smooth="yes"/>
      <point x="1194" y="510"/>
      <point x="1124" y="641"/>
      <point x="1014" y="641" type="qcurve" smooth="yes"/>
      <point x="905" y="641"/>
      <point x="835" y="510"/>
      <point x="835" y="480" type="qcurve" smooth="yes"/>
    </contour>
    <contour>
      <point x="1434" y="291" type="qcurve" smooth="yes"/>
      <point x="1434" y="478" type="line" smooth="yes"/>
      <point x="1434" y="627"/>
      <point x="1563" y="794"/>
      <point x="1646" y="794" type="qcurve" smooth="yes"/>
      <point x="1732" y="794"/>
      <point x="1859" y="627"/>
      <point x="1859" y="478" type="qcurve" smooth="yes"/>
      <point x="1859" y="291" type="line" smooth="yes"/>
      <point x="1859" y="143"/>
      <point x="1732" y="-23"/>
      <point x="1648" y="-23" type="qcurve" smooth="yes"/>
      <point x="1563" y="-23"/>
      <point x="1434" y="143"/>
    </contour>
    <contour>
      <point x="1466" y="289" type="line" smooth="yes"/>
      <point x="1466" y="259"/>
      <point x="1537" y="130"/>
      <point x="1648" y="130" type="qcurve" smooth="yes"/>
      <point x="1758" y="130"/>
      <point x="1825" y="260"/>
      <point x="1825" y="289" type="qcurve" smooth="yes"/>
      <point x="1825" y="480" type="line" smooth="yes"/>
      <point x="1825" y="510"/>
      <point x="1755" y="641"/>
      <point x="1646" y="641" type="qcurve" smooth="yes"/>
      <point x="1536" y="641"/>
      <point x="1466" y="510"/>
      <point x="1466" y="480" type="qcurve" smooth="yes"/>
    </contour>
  </outline>
</glyph>
<glyph name="guilsinglleft" format="1">
  <advance width="469"/>
  <unicode hex="2039"/>
  <outline>
    <contour>
      <point x="340" y="203" type="line"/>
      <point x="78" y="573" type="line"/>
      <point x="78" y="630" type="line"/>
      <point x="340" y="999" type="line"/>
      <point x="409" y="999" type="line"/>
      <point x="171" y="601" type="line"/>
      <point x="409" y="203" type="line"/>
    </contour>
  </outline>
</glyph>
<glyph name="Euro" format="1">
  <advance width="882"/>
  <unicode hex="20AC"/>
  <outline>
    <contour>
      <point x="651" y="947" type="line"/>
      <point x="651" y="797" type="line"/>
      <point x="25" y="797" type="line"/>
      <point x="25" y="947" type="line"/>
    </contour>
    <contour>
      <point x="651" y="626" type="line"/>
      <point x="651" y="477" type="line"/>
      <point x="25" y="477" type="line"/>
      <point x="25" y="626" type="line"/>
    </contour>
    <contour>
      <point x="541" y="-20" type="qcurve" smooth="yes"/>
      <point x="366" y="-20"/>
      <point x="151" y="252"/>
      <point x="151" y="560" type="qcurve" smooth="yes"/>
      <point x="151" y="872" type="line" smooth="yes"/>
      <point x="151" y="1182"/>
      <point x="357" y="1455"/>
      <point x="520" y="1455" type="qcurve" smooth="yes"/>
      <point x="680" y="1455"/>
      <point x="842" y="1236"/>
      <point x="842" y="1058" type="qcurve" smooth="yes"/>
      <point x="842" y="1043" type="line"/>
      <point x="797" y="1043" type="line"/>
      <point x="797" y="1057" type="line" smooth="yes"/>
      <point x="797" y="1148"/>
      <point x="688" y="1298"/>
      <point x="522" y="1298" type="qcurve" smooth="yes"/>
      <point x="346" y="1298"/>
      <point x="197" y="1067"/>
      <point x="197" y="874" type="qcurve" smooth="yes"/>
      <point x="197" y="560" type="line" smooth="yes"/>
      <point x="197" y="367"/>
      <point x="347" y="139"/>
      <point x="536" y="139" type="qcurve" smooth="yes"/>
      <point x="686" y="139"/>
      <point x="810" y="282"/>
      <point x="803" y="383" type="qcurve" smooth="yes"/>
      <point x="803" y="393" type="line"/>
      <point x="851" y="393" type="line"/>
      <point x="851" y="378" type="line" smooth="yes"/>
      <point x="851" y="199"/>
      <point x="688" y="-20"/>
    </contour>
  </outline>
</glyph>
<glyph name="numero" format="1">
  <advance width="2043"/>
  <unicode hex="2116"/>
  <outline>
    <contour>
      <point x="170" y="0" type="line"/>
      <point x="170" y="1456" type="line"/>
      <point x="238" y="1456" type="line"/>
      <point x="769" y="441" type="line" smooth="yes"/>
      <point x="776" y="427"/>
      <point x="809" y="362"/>
      <point x="822" y="326" type="qcurve"/>
      <point x="932" y="326" type="line"/>
      <point x="932" y="308"/>
      <point x="930" y="380"/>
      <point x="930" y="441" type="qcurve" smooth="yes"/>
      <point x="930" y="1456" type="line"/>
      <point x="979" y="1456" type="line"/>
      <point x="979" y="0" type="line"/>
      <point x="910" y="0" type="line"/>
      <point x="382" y="1012" type="line" smooth="yes"/>
      <point x="374" y="1027"/>
      <point x="336" y="1093"/>
      <point x="322" y="1127" type="qcurve"/>
      <point x="223" y="1127" type="line"/>
      <point x="224" y="1106"/>
      <point x="219" y="994"/>
      <point x="219" y="1012" type="qcurve" smooth="yes"/>
      <point x="219" y="0" type="line"/>
    </contour>
    <contour>
      <point x="1212" y="962" type="qcurve" smooth="yes"/>
      <point x="1212" y="981" type="line" smooth="yes"/>
      <point x="1212" y="1218"/>
      <point x="1415" y="1475"/>
      <point x="1567" y="1475" type="qcurve" smooth="yes"/>
      <point x="1727" y="1475"/>
      <point x="1927" y="1224"/>
      <point x="1927" y="981" type="qcurve" smooth="yes"/>
      <point x="1927" y="962" type="line" smooth="yes"/>
      <point x="1927" y="725"/>
      <point x="1722" y="471"/>
      <point x="1569" y="471" type="qcurve" smooth="yes"/>
      <point x="1415" y="471"/>
      <point x="1212" y="725"/>
    </contour>
    <contour>
      <point x="1259" y="983" type="qcurve" smooth="yes"/>
      <point x="1259" y="964" type="line" smooth="yes"/>
      <point x="1259" y="843"/>
      <point x="1398" y="622"/>
      <point x="1569" y="622" type="qcurve" smooth="yes"/>
      <point x="1738" y="622"/>
      <point x="1874" y="843"/>
      <point x="1874" y="964" type="qcurve" smooth="yes"/>
      <point x="1874" y="983" type="line" smooth="yes"/>
      <point x="1874" y="1102"/>
      <point x="1738" y="1323"/>
      <point x="1567" y="1323" type="qcurve" smooth="yes"/>
      <point x="1398" y="1323"/>
      <point x="1259" y="1102"/>
    </contour>
    <contour>
      <point x="1245" y="129" type="line"/>
      <point x="1245" y="295" type="line"/>
      <point x="1899" y="295" type="line"/>
      <point x="1899" y="129" type="line"/>
    </contour>
  </outline>
</glyph>
<glyph name="trademark" format="1">
  <advance width="1216"/>
  <unicode hex="2122"/>
  <outline>
    <contour>
      <point x="1090" y="822" type="line"/>
      <point x="1090" y="1566" type="line"/>
      <point x="858" y="821" type="line"/>
      <point x="822" y="821" type="line"/>
      <point x="591" y="1565" type="line"/>
      <point x="591" y="821" type="line"/>
      <point x="584" y="821" type="line"/>
      <point x="584" y="1456" type="line"/>
      <point x="658" y="1456" type="line"/>
      <point x="846" y="864" type="line"/>
      <point x="1037" y="1456" type="line"/>
      <point x="1106" y="1456" type="line"/>
      <point x="1106" y="822" type="line"/>
    </contour>
    <contour>
      <point x="430" y="1456" type="line"/>
      <point x="430" y="1310" type="line"/>
      <point x="268" y="1310" type="line"/>
      <point x="268" y="821" type="line"/>
      <point x="237" y="821" type="line"/>
      <point x="237" y="1310" type="line"/>
      <point x="68" y="1310" type="line"/>
      <point x="68" y="1456" type="line"/>
    </contour>
  </outline>
</glyph>
<glyph name="minus" format="1">
  <advance width="892"/>
  <unicode hex="2212"/>
  <outline>
    <contour>
      <point x="128" y="588" type="line"/>
      <point x="128" y="760" type="line"/>
      <point x="764" y="760" type="line"/>
      <point x="764" y="588" type="line"/>
    </contour>
  </outline>
</glyph>
<glyph name="divisionslash" format="1">
  <advance width="527"/>
  <unicode hex="2215"/>
  <outline>
    <contour>
      <point x="-50" y="-125" type="line"/>
      <point x="467" y="1456" type="line"/>
      <point x="527" y="1456" type="line"/>
      <point x="11" y="-125" type="line"/>
    </contour>
  </outline>
</glyph>
<glyph name="fl" format="1">
  <advance width="868"/>
  <unicode hex="FB02"/>
  <outline>
    <contour>
      <point x="659" y="0" type="line"/>
      <point x="659" y="1496" type="line"/>
      <point x="712" y="1496" type="line"/>
      <point x="712" y="0" type="line"/>
    </contour>
    <contour>
      <point x="217" y="0" type="line"/>
      <point x="163" y="0" type="line"/>
      <point x="163" y="1176" type="line" smooth="yes"/>
      <point x="163" y="1376"/>
      <point x="319" y="1557"/>
      <point x="432" y="1557" type="qcurve" smooth="yes"/>
      <point x="460" y="1557"/>
      <point x="570" y="1522"/>
      <point x="617" y="1501" type="qcurve"/>
      <point x="597" y="1373" type="line"/>
      <point x="629" y="1358"/>
      <point x="531" y="1396"/>
      <point x="443" y="1396" type="qcurve" smooth="yes"/>
      <point x="314" y="1396"/>
      <point x="217" y="1265"/>
      <point x="217" y="1176" type="qcurve" smooth="yes"/>
    </contour>
    <contour>
      <point x="441" y="1052" type="line"/>
      <point x="441" y="910" type="line"/>
      <point x="26" y="910" type="line"/>
      <point x="26" y="1052" type="line"/>
    </contour>
  </outline>
</glyph>
<glyph name="eight.pnum" format="1">
  <advance width="870"/>
  <outline>
    <contour>
      <point x="90" y="412" type="qcurve" smooth="yes"/>
      <point x="90" y="568"/>
      <point x="206" y="761"/>
      <point x="324" y="799" type="qcurve"/>
      <point x="324" y="791" type="line"/>
      <point x="236" y="843"/>
      <point x="154" y="982"/>
      <point x="154" y="1104" type="qcurve" smooth="yes"/>
      <point x="154" y="1298"/>
      <point x="331" y="1477"/>
      <point x="434" y="1477" type="qcurve" smooth="yes"/>
      <point x="538" y="1477"/>
      <point x="716" y="1298"/>
      <point x="716" y="1104" type="qcurve" smooth="yes"/>
      <point x="716" y="982"/>
      <point x="633" y="842"/>
      <point x="545" y="790" type="qcurve"/>
      <point x="545" y="797" type="line"/>
      <point x="666" y="759"/>
      <point x="780" y="567"/>
      <point x="780" y="412" type="qcurve" smooth="yes"/>
      <point x="780" y="187"/>
      <point x="568" y="-30"/>
      <point x="435" y="-30" type="qcurve" smooth="yes"/>
      <point x="301" y="-30"/>
      <point x="90" y="187"/>
    </contour>
    <contour>
      <point x="194" y="1096" type="qcurve" smooth="yes"/>
      <point x="194" y="1014"/>
      <point x="312" y="869"/>
      <point x="435" y="869" type="qcurve" smooth="yes"/>
      <point x="557" y="869"/>
      <point x="677" y="1014"/>
      <point x="677" y="1096" type="qcurve" smooth="yes"/>
      <point x="677" y="1173"/>
      <point x="556" y="1323"/>
      <point x="434" y="1323" type="qcurve" smooth="yes"/>
      <point x="313" y="1323"/>
      <point x="194" y="1180"/>
    </contour>
    <contour>
      <point x="136" y="424" type="qcurve" smooth="yes"/>
      <point x="136" y="305"/>
      <point x="288" y="124"/>
      <point x="435" y="124" type="qcurve" smooth="yes"/>
      <point x="582" y="124"/>
      <point x="734" y="305"/>
      <point x="734" y="424" type="qcurve" smooth="yes"/>
      <point x="734" y="538"/>
      <point x="583" y="714"/>
      <point x="433" y="714" type="qcurve" smooth="yes"/>
      <point x="281" y="714"/>
      <point x="136" y="538"/>
    </contour>
  </outline>
</glyph>
<glyph name="one.pnum" format="1">
  <advance width="667"/>
  <outline>
    <contour>
      <point x="412" y="1464" type="line"/>
      <point x="412" y="0" type="line"/>
      <point x="359" y="0" type="line"/>
      <point x="359" y="1281" type="line"/>
      <point x="47" y="1138" type="line"/>
      <point x="47" y="1272" type="line"/>
      <point x="477" y="1464" type="line"/>
    </contour>
  </outline>
</glyph>
<glyph name="seven.pnum" format="1">
  <advance width="655"/>
  <outline>
    <contour>
      <point x="655" y="1456" type="line"/>
      <point x="655" y="1323" type="line"/>
      <point x="191" y="0" type="line"/>
      <point x="121" y="0" type="line"/>
      <point x="592" y="1304" type="line"/>
      <point x="0" y="1304" type="line"/>
      <point x="0" y="1456" type="line"/>
    </contour>
  </outline>
</glyph>
<glyph name="six.pnum" format="1">
  <advance width="818"/>
  <outline>
    <contour>
      <point x="66" y="627" type="qcurve" smooth="yes"/>
      <point x="66" y="656" type="line" smooth="yes"/>
      <point x="66" y="1021"/>
      <point x="429" y="1478"/>
      <point x="681" y="1478" type="qcurve" smooth="yes"/>
      <point x="657" y="1478" type="line"/>
      <point x="657" y="1309" type="line"/>
      <point x="678" y="1309" type="line" smooth="yes"/>
      <point x="449" y="1309"/>
      <point x="116" y="1000"/>
      <point x="116" y="652" type="qcurve" smooth="yes"/>
      <point x="116" y="553" type="line" smooth="yes"/>
      <point x="116" y="354"/>
      <point x="280" y="122"/>
      <point x="444" y="122" type="qcurve" smooth="yes"/>
      <point x="604" y="122"/>
      <point x="747" y="315"/>
      <point x="747" y="434" type="qcurve" smooth="yes"/>
      <point x="747" y="559"/>
      <point x="597" y="739"/>
      <point x="447" y="739" type="qcurve" smooth="yes"/>
      <point x="300" y="739"/>
      <point x="118" y="565"/>
      <point x="96" y="379" type="qcurve"/>
      <point x="188" y="393" type="line"/>
      <point x="188" y="671" type="line"/>
      <point x="221" y="767"/>
      <point x="385" y="895"/>
      <point x="473" y="895" type="qcurve" smooth="yes"/>
      <point x="618" y="895"/>
      <point x="795" y="649"/>
      <point x="795" y="444" type="qcurve" smooth="yes"/>
      <point x="795" y="231"/>
      <point x="593" y="-30"/>
      <point x="447" y="-30" type="qcurve" smooth="yes"/>
      <point x="303" y="-30"/>
      <point x="66" y="249"/>
    </contour>
  </outline>
</glyph>
<glyph name="three.pnum" format="1">
  <advance width="801"/>
  <outline>
    <contour>
      <point x="39" y="393" type="line"/>
      <point x="83" y="393" type="line"/>
      <point x="83" y="387" type="line" smooth="yes"/>
      <point x="83" y="281"/>
      <point x="237" y="125"/>
      <point x="389" y="125" type="qcurve" smooth="yes"/>
      <point x="550" y="125"/>
      <point x="696" y="287"/>
      <point x="696" y="400" type="qcurve" smooth="yes"/>
      <point x="696" y="529"/>
      <point x="525" y="681"/>
      <point x="360" y="681" type="qcurve" smooth="yes"/>
      <point x="310" y="681" type="line"/>
      <point x="310" y="836" type="line"/>
      <point x="346" y="836" type="line" smooth="yes"/>
      <point x="508" y="836"/>
      <point x="641" y="974"/>
      <point x="641" y="1078" type="qcurve" smooth="yes"/>
      <point x="641" y="1181"/>
      <point x="517" y="1324"/>
      <point x="378" y="1324" type="qcurve" smooth="yes"/>
      <point x="243" y="1324"/>
      <point x="122" y="1179"/>
      <point x="122" y="1091" type="qcurve" smooth="yes"/>
      <point x="122" y="1085" type="line"/>
      <point x="78" y="1085" type="line"/>
      <point x="78" y="1094" type="line" smooth="yes"/>
      <point x="78" y="1271"/>
      <point x="261" y="1479"/>
      <point x="378" y="1479" type="qcurve" smooth="yes"/>
      <point x="502" y="1479"/>
      <point x="687" y="1296"/>
      <point x="687" y="1101" type="qcurve" smooth="yes"/>
      <point x="687" y="975"/>
      <point x="613" y="812"/>
      <point x="521" y="766" type="qcurve"/>
      <point x="607" y="742"/>
      <point x="745" y="582"/>
      <point x="745" y="404" type="qcurve" smooth="yes"/>
      <point x="745" y="180"/>
      <point x="532" y="-30"/>
      <point x="389" y="-30" type="qcurve" smooth="yes"/>
      <point x="252" y="-30"/>
      <point x="39" y="176"/>
      <point x="39" y="386" type="qcurve" smooth="yes"/>
    </contour>
  </outline>
</glyph>
<glyph name="two.pnum" format="1">
  <advance width="750"/>
  <outline>
    <contour>
      <point x="50" y="0" type="line"/>
      <point x="50" y="154" type="line"/>
      <point x="433" y="674" type="line" smooth="yes"/>
      <point x="540" y="819"/>
      <point x="645" y="994"/>
      <point x="645" y="1072" type="qcurve" smooth="yes"/>
      <point x="645" y="1154"/>
      <point x="526" y="1324"/>
      <point x="374" y="1324" type="qcurve" smooth="yes"/>
      <point x="233" y="1324"/>
      <point x="90" y="1143"/>
      <point x="90" y="1037" type="qcurve" smooth="yes"/>
      <point x="90" y="1028" type="line"/>
      <point x="41" y="1028" type="line"/>
      <point x="41" y="1035" type="line" smooth="yes"/>
      <point x="41" y="1235"/>
      <point x="239" y="1476"/>
      <point x="374" y="1476" type="qcurve" smooth="yes"/>
      <point x="513" y="1476"/>
      <point x="692" y="1266"/>
      <point x="692" y="1096" type="qcurve" smooth="yes"/>
      <point x="692" y="927"/>
      <point x="560" y="706"/>
      <point x="493" y="616" type="qcurve" smooth="yes"/>
      <point x="149" y="152" type="line"/>
      <point x="717" y="152" type="line"/>
      <point x="717" y="0" type="line"/>
    </contour>
  </outline>
</glyph>
<glyph name="zero.pnum" format="1">
  <advance width="910"/>
  <outline>
    <contour>
      <point x="112" y="440" type="qcurve" smooth="yes"/>
      <point x="112" y="1007" type="line" smooth="yes"/>
      <point x="112" y="1246"/>
      <point x="312" y="1479"/>
      <point x="454" y="1479" type="qcurve" smooth="yes"/>
      <point x="598" y="1479"/>
      <point x="798" y="1246"/>
      <point x="798" y="1007" type="qcurve" smooth="yes"/>
      <point x="798" y="440" type="line" smooth="yes"/>
      <point x="798" y="201"/>
      <point x="598" y="-30"/>
      <point x="456" y="-30" type="qcurve" smooth="yes"/>
      <point x="312" y="-30"/>
      <point x="112" y="201"/>
    </contour>
    <contour>
      <point x="167" y="428" type="line" smooth="yes"/>
      <point x="167" y="342"/>
      <point x="280" y="124"/>
      <point x="456" y="124" type="qcurve" smooth="yes"/>
      <point x="632" y="124"/>
      <point x="743" y="348"/>
      <point x="743" y="428" type="qcurve" smooth="yes"/>
      <point x="743" y="1019" type="line" smooth="yes"/>
      <point x="743" y="1105"/>
      <point x="630" y="1323"/>
      <point x="454" y="1323" type="qcurve" smooth="yes"/>
      <point x="278" y="1323"/>
      <point x="167" y="1099"/>
      <point x="167" y="1019" type="qcurve" smooth="yes"/>
    </contour>
  </outline>
</glyph>
